{
  "accessors": [
    {
      "bufferView": 2,
      "componentType": 5126,
      "count": 380,
      "max": [
        0.05674999952316284,
        0.10978365689516068,
        0.05674999952316284
      ],
      "min": [
        -0.05674999952316284,
        -0.2772163152694702,
        -0.05674999952316284
      ],
      "type": "VEC3"
    },
    {
      "bufferView": 2,
      "byteOffset": 4560,
      "componentType": 5126,
      "count": 380,
      "max": [
        0.923879861831665,
        1.0,
        0.9238798022270203
      ],
      "min": [
        -0.9238797426223755,
        -1.0,
        -0.9238796234130859
      ],
      "type": "VEC3"
    },
    {
      "bufferView": 1,
      "componentType": 5126,
      "count": 380,
      "max": [
        1.0,
        1.0
      ],
      "min": [
        0.0,
        0.01000000536441803
      ],
      "type": "VEC2"
    },
    {
      "bufferView": 0,
      "componentType": 5125,
      "count": 576,
      "type": "SCALAR"
    },
    {
      "bufferView": 2,
      "byteOffset": 9120,
      "componentType": 5126,
      "count": 219,
      "max": [
        0.03949999809265137,
        0.2772163152694702,
        0.03949999809265137
      ],
      "min": [
        -0.03949999809265137,
        -0.2772163152694702,
        -0.03949999809265137
      ],
      "type": "VEC3"
    },
    {
      "bufferView": 2,
      "byteOffset": 11748,
      "componentType": 5126,
      "count": 219,
      "max": [
        0.9236513376235962,
        1.0,
        0.9236511588096619
      ],
      "min": [
        -0.9236512780189514,
        -1.0,
        -0.9236512780189514
      ],
      "type": "VEC3"
    },
    {
      "bufferView": 1,
      "byteOffset": 3040,
      "componentType": 5126,
      "count": 219,
      "max": [
        1.0,
        1.0
      ],
      "min": [
        0.0,
        0.031583428382873535
      ],
      "type": "VEC2"
    },
    {
      "bufferView": 0,
      "byteOffset": 2304,
      "componentType": 5125,
      "count": 336,
      "type": "SCALAR"
    },
    {
      "bufferView": 2,
      "byteOffset": 14376,
      "componentType": 5126,
      "count": 415,
      "max": [
        0.05674999952316284,
        0.19349999725818634,
        0.05674999952316284
      ],
      "min": [
        -0.05674999952316284,
        -0.19349999725818634,
        -0.05674999952316284
      ],
      "type": "VEC3"
    },
    {
      "bufferView": 2,
      "byteOffset": 19356,
      "componentType": 5126,
      "count": 415,
      "max": [
        0.9238797426223755,
        1.0,
        0.9238796234130859
      ],
      "min": [
        -0.9238797426223755,
        -1.0,
        -0.9238796234130859
      ],
      "type": "VEC3"
    },
    {
      "bufferView": 1,
      "byteOffset": 4792,
      "componentType": 5126,
      "count": 415,
      "max": [
        1.0,
        1.0
      ],
      "min": [
        0.0,
        0.01000000536441803
      ],
      "type": "VEC2"
    },
    {
      "bufferView": 0,
      "byteOffset": 3648,
      "componentType": 5125,
      "count": 648,
      "type": "SCALAR"
    },
    {
      "bufferView": 2,
      "byteOffset": 24336,
      "componentType": 5126,
      "count": 80,
      "max": [
        0.026649996638298035,
        -0.18498075008392334,
        0.026649996638298035
      ],
      "min": [
        -0.026649996638298035,
        -0.19349999725818634,
        -0.026649996638298035
      ],
      "type": "VEC3"
    },
    {
      "bufferView": 2,
      "byteOffset": 25296,
      "componentType": 5126,
      "count": 80,
      "max": [
        0.8535532355308533,
        -0.3826841711997986,
        0.8535528779029846
      ],
      "min": [
        -0.8535532355308533,
        -1.0,
        -0.8535528779029846
      ],
      "type": "VEC3"
    },
    {
      "bufferView": 1,
      "byteOffset": 8112,
      "componentType": 5126,
      "count": 80,
      "max": [
        0.9684165716171265,
        0.4684164524078369
      ],
      "min": [
        0.5315834283828735,
        0.031583428382873535
      ],
      "type": "VEC2"
    },
    {
      "bufferView": 0,
      "byteOffset": 6240,
      "componentType": 5125,
      "count": 120,
      "type": "SCALAR"
    },
    {
      "bufferView": 2,
      "byteOffset": 26256,
      "componentType": 5126,
      "count": 3399,
      "max": [
        2.5231761932373047,
        0.20468904078006744,
        0.19597524404525757
      ],
      "min": [
        -2.5231761932373047,
        -0.20468904078006744,
        -0.1686323881149292
      ],
      "type": "VEC3"
    },
    {
      "bufferView": 2,
      "byteOffset": 67044,
      "componentType": 5126,
      "count": 3399,
      "max": [
        1.0,
        1.0,
        1.0
      ],
      "min": [
        -1.0,
        -1.0,
        -1.0
      ],
      "type": "VEC3"
    },
    {
      "bufferView": 1,
      "byteOffset": 8752,
      "componentType": 5126,
      "count": 3399,
      "max": [
        1.0,
        1.0
      ],
      "min": [
        0.0,
        0.0
      ],
      "type": "VEC2"
    },
    {
      "bufferView": 0,
      "byteOffset": 6720,
      "componentType": 5125,
      "count": 5109,
      "type": "SCALAR"
    },
    {
      "bufferView": 2,
      "byteOffset": 107832,
      "componentType": 5126,
      "count": 2652,
      "max": [
        1.1666545867919922,
        0.6368539333343506,
        0.10994536429643631
      ],
      "min": [
        -0.9294899702072144,
        -0.3178306221961975,
        -0.12000539898872375
      ],
      "type": "VEC3"
    },
    {
      "bufferView": 2,
      "byteOffset": 139656,
      "componentType": 5126,
      "count": 2652,
      "max": [
        0.9880002737045288,
        0.998855471611023,
        1.0
      ],
      "min": [
        -0.9962819218635559,
        -0.9999748468399048,
        -1.0
      ],
      "type": "VEC3"
    },
    {
      "bufferView": 1,
      "byteOffset": 35944,
      "componentType": 5126,
      "count": 2652,
      "max": [
        1.0,
        1.0000001192092896
      ],
      "min": [
        0.0,
        0.0
      ],
      "type": "VEC2"
    },
    {
      "bufferView": 0,
      "byteOffset": 27156,
      "componentType": 5125,
      "count": 3654,
      "type": "SCALAR"
    },
    {
      "bufferView": 2,
      "byteOffset": 171480,
      "componentType": 5126,
      "count": 1126,
      "max": [
        -0.41462042927742004,
        0.3803774118423462,
        0.08464836329221725
      ],
      "min": [
        -0.8881068825721741,
        -0.22895878553390503,
        -0.08464892208576202
      ],
      "type": "VEC3"
    },
    {
      "bufferView": 2,
      "byteOffset": 184992,
      "componentType": 5126,
      "count": 1126,
      "max": [
        0.925661027431488,
        0.9846107959747314,
        0.9236515760421753
      ],
      "min": [
        -0.9073013663291931,
        -0.984609067440033,
        -0.9236516952514648
      ],
      "type": "VEC3"
    },
    {
      "bufferView": 1,
      "byteOffset": 57160,
      "componentType": 5126,
      "count": 1126,
      "max": [
        1.0,
        1.0
      ],
      "min": [
        0.0,
        0.031583428382873535
      ],
      "type": "VEC2"
    },
    {
      "bufferView": 0,
      "byteOffset": 41772,
      "componentType": 5125,
      "count": 1680,
      "type": "SCALAR"
    },
    {
      "bufferView": 2,
      "byteOffset": 198504,
      "componentType": 5126,
      "count": 1920,
      "max": [
        -0.41695845127105713,
        0.2223631888628006,
        0.10189837217330933
      ],
      "min": [
        -0.9184084534645081,
        -0.23493912816047668,
        -0.1018989235162735
      ],
      "type": "VEC3"
    },
    {
      "bufferView": 2,
      "byteOffset": 221544,
      "componentType": 5126,
      "count": 1920,
      "max": [
        0.9261810183525085,
        0.9846120476722717,
        0.9238806366920471
      ],
      "min": [
        -0.9096624851226807,
        -0.9846088886260986,
        -0.9238805174827576
      ],
      "type": "VEC3"
    },
    {
      "bufferView": 1,
      "byteOffset": 66168,
      "componentType": 5126,
      "count": 1920,
      "max": [
        1.0,
        1.0
      ],
      "min": [
        0.0,
        0.01000000536441803
      ],
      "type": "VEC2"
    },
    {
      "bufferView": 0,
      "byteOffset": 48492,
      "componentType": 5125,
      "count": 2880,
      "type": "SCALAR"
    },
    {
      "bufferView": 2,
      "byteOffset": 244584,
      "componentType": 5126,
      "count": 2652,
      "max": [
        0.767160952091217,
        0.8869787454605103,
        0.10994543135166168
      ],
      "min": [
        -0.3692716658115387,
        -1.1203263998031616,
        -0.12000531703233719
      ],
      "type": "VEC3"
    },
    {
      "bufferView": 2,
      "byteOffset": 276408,
      "componentType": 5126,
      "count": 2652,
      "max": [
        1.0,
        1.0,
        1.0
      ],
      "min": [
        -1.0,
        -1.0,
        -1.0
      ],
      "type": "VEC3"
    },
    {
      "bufferView": 1,
      "byteOffset": 81528,
      "componentType": 5126,
      "count": 2652,
      "max": [
        1.0,
        1.0000001192092896
      ],
      "min": [
        0.0,
        0.0
      ],
      "type": "VEC2"
    },
    {
      "bufferView": 0,
      "byteOffset": 60012,
      "componentType": 5125,
      "count": 3654,
      "type": "SCALAR"
    },
    {
      "bufferView": 2,
      "byteOffset": 308232,
      "componentType": 5126,
      "count": 288,
      "max": [
        0.243338942527771,
        0.8621325492858887,
        0.10114122927188873
      ],
      "min": [
        -0.35365185141563416,
        0.7102105617523193,
        -0.1011415421962738
      ],
      "type": "VEC3"
    },
    {
      "bufferView": 2,
      "byteOffset": 311688,
      "componentType": 5126,
      "count": 288,
      "max": [
        1.0,
        1.0,
        1.0
      ],
      "min": [
        -1.0,
        -1.0,
        -1.0
      ],
      "type": "VEC3"
    },
    {
      "bufferView": 1,
      "byteOffset": 102744,
      "componentType": 5126,
      "count": 288,
      "max": [
        0.875,
        1.0
      ],
      "min": [
        0.125,
        0.0
      ],
      "type": "VEC2"
    },
    {
      "bufferView": 0,
      "byteOffset": 74628,
      "componentType": 5125,
      "count": 426,
      "type": "SCALAR"
    },
    {
      "bufferView": 2,
      "byteOffset": 315144,
      "componentType": 5126,
      "count": 1700,
      "max": [
        2.985675573348999,
        0.19577044248580933,
        0.17586252093315125
      ],
      "min": [
        -1.1812223196029663,
        -0.17586247622966766,
        -0.17586252093315125
      ],
      "type": "VEC3"
    },
    {
      "bufferView": 2,
      "byteOffset": 335544,
      "componentType": 5126,
      "count": 1700,
      "max": [
        1.0,
        1.0,
        1.0
      ],
      "min": [
        -1.0,
        -1.0,
        -1.0
      ],
      "type": "VEC3"
    },
    {
      "bufferView": 1,
      "byteOffset": 105048,
      "componentType": 5126,
      "count": 1700,
      "max": [
        1.0,
        1.0
      ],
      "min": [
        0.0,
        0.0004988652653992176
      ],
      "type": "VEC2"
    },
    {
      "bufferView": 0,
      "byteOffset": 76332,
      "componentType": 5125,
      "count": 2532,
      "type": "SCALAR"
    },
    {
      "bufferView": 2,
      "byteOffset": 355944,
      "componentType": 5126,
      "count": 208,
      "max": [
        2.7872629165649414,
        0.2299792468547821,
        0.09104657173156738
      ],
      "min": [
        -1.3328862190246582,
        -0.091046541929245,
        -0.09104658663272858
      ],
      "type": "VEC3"
    },
    {
      "bufferView": 2,
      "byteOffset": 358440,
      "componentType": 5126,
      "count": 208,
      "max": [
        1.0,
        0.923880398273468,
        0.923880398273468
      ],
      "min": [
        -1.0,
        -0.923880398273468,
        -0.9238804578781128
      ],
      "type": "VEC3"
    },
    {
      "bufferView": 1,
      "byteOffset": 118648,
      "componentType": 5126,
      "count": 208,
      "max": [
        1.0,
        0.9882876873016357
      ],
      "min": [
        0.0,
        0.01000000536441803
      ],
      "type": "VEC2"
    },
    {
      "bufferView": 0,
      "byteOffset": 86460,
      "componentType": 5125,
      "count": 306,
      "type": "SCALAR"
    },
    {
      "bufferView": 2,
      "byteOffset": 360936,
      "componentType": 5126,
      "count": 4228,
      "max": [
        0.8800814151763916,
        0.245167538523674,
        0.12716135382652283
      ],
      "min": [
        -0.9525002241134644,
        -0.11680366843938828,
        -0.12716156244277954
      ],
      "type": "VEC3"
    },
    {
      "bufferView": 2,
      "byteOffset": 411672,
      "componentType": 5126,
      "count": 4228,
      "max": [
        1.0,
        1.0,
        1.0
      ],
      "min": [
        -1.0,
        -1.0,
        -1.0
      ],
      "type": "VEC3"
    },
    {
      "bufferView": 1,
      "byteOffset": 120312,
      "componentType": 5126,
      "count": 4228,
      "max": [
        0.9987242221832275,
        1943.150390625
      ],
      "min": [
        0.0012757963268086314,
        -1945.8330078125
      ],
      "type": "VEC2"
    },
    {
      "bufferView": 0,
      "byteOffset": 87684,
      "componentType": 5125,
      "count": 7398,
      "type": "SCALAR"
    },
    {
      "bufferView": 2,
      "byteOffset": 462408,
      "componentType": 5126,
      "count": 480,
      "max": [
        0.060233548283576965,
        0.1903666853904724,
        0.22606109082698822
      ],
      "min": [
        -0.04736749827861786,
        -0.10478204488754272,
        -0.04040374979376793
      ],
      "type": "VEC3"
    },
    {
      "bufferView": 2,
      "byteOffset": 468168,
      "componentType": 5126,
      "count": 480,
      "max": [
        1.0,
        1.0,
        1.0
      ],
      "min": [
        -1.0,
        -1.0,
        -1.0
      ],
      "type": "VEC3"
    },
    {
      "bufferView": 1,
      "byteOffset": 154136,
      "componentType": 5126,
      "count": 480,
      "max": [
        0.9916780591011047,
        0.9999999403953552
      ],
      "min": [
        0.028882883489131927,
        0.0831388458609581
      ],
      "type": "VEC2"
    },
    {
      "bufferView": 0,
      "byteOffset": 117276,
      "componentType": 5125,
      "count": 696,
      "type": "SCALAR"
    },
    {
      "bufferView": 2,
      "byteOffset": 473928,
      "componentType": 5126,
      "count": 847,
      "max": [
        1.6375011205673218,
        0.0003424156457185745,
        0.2442915290594101
      ],
      "min": [
        -0.08539743721485138,
        -0.16607758402824402,
        -0.3204720616340637
      ],
      "type": "VEC3"
    },
    {
      "bufferView": 2,
      "byteOffset": 484092,
      "componentType": 5126,
      "count": 847,
      "max": [
        1.0,
        1.0,
        1.0
      ],
      "min": [
        -1.0,
        -1.0,
        -1.0
      ],
      "type": "VEC3"
    },
    {
      "bufferView": 1,
      "byteOffset": 157976,
      "componentType": 5126,
      "count": 847,
      "max": [
        0.8647204041481018,
        0.9996275305747986
      ],
      "min": [
        0.0003725042915903032,
        0.0003724661946762353
      ],
      "type": "VEC2"
    },
    {
      "bufferView": 0,
      "byteOffset": 120060,
      "componentType": 5125,
      "count": 1236,
      "type": "SCALAR"
    },
    {
      "bufferView": 2,
      "byteOffset": 494256,
      "componentType": 5126,
      "count": 933,
      "max": [
        0.5286982655525208,
        0.20021970570087433,
        0.022544490173459053
      ],
      "min": [
        -0.46439632773399353,
        -0.01684274896979332,
        -0.08400009572505951
      ],
      "type": "VEC3"
    },
    {
      "bufferView": 2,
      "byteOffset": 505452,
      "componentType": 5126,
      "count": 933,
      "max": [
        1.0,
        0.9999210834503174,
        0.9999210238456726
      ],
      "min": [
        -1.0,
        -0.9999210834503174,
        -0.9999210834503174
      ],
      "type": "VEC3"
    },
    {
      "bufferView": 1,
      "byteOffset": 164752,
      "componentType": 5126,
      "count": 933,
      "max": [
        0.7402150630950928,
        1.0
      ],
      "min": [
        -1.4365574008134985e-10,
        -2.0240745968180818e-08
      ],
      "type": "VEC2"
    },
    {
      "bufferView": 0,
      "byteOffset": 125004,
      "componentType": 5125,
      "count": 1365,
      "type": "SCALAR"
    },
    {
      "bufferView": 2,
      "byteOffset": 516648,
      "componentType": 5126,
      "count": 1543,
      "max": [
        0.0944390520453453,
        0.11570113897323608,
        0.024658899754285812
      ],
      "min": [
        -0.09469883888959885,
        -0.024659035727381706,
        -0.04411020874977112
      ],
      "type": "VEC3"
    },
    {
      "bufferView": 2,
      "byteOffset": 535164,
      "componentType": 5126,
      "count": 1543,
      "max": [
        0.9937224984169006,
        0.9999446868896484,
        0.9966368675231934
      ],
      "min": [
        -0.9950741529464722,
        -0.9689483046531677,
        -0.9870549440383911
      ],
      "type": "VEC3"
    },
    {
      "bufferView": 1,
      "byteOffset": 172216,
      "componentType": 5126,
      "count": 1543,
      "max": [
        0.7712482810020447,
        0.7663021683692932
      ],
      "min": [
        0.5072028636932373,
        0.002539008157327771
      ],
      "type": "VEC2"
    },
    {
      "bufferView": 0,
      "byteOffset": 130464,
      "componentType": 5125,
      "count": 1557,
      "type": "SCALAR"
    },
    {
      "bufferView": 2,
      "byteOffset": 553680,
      "componentType": 5126,
      "count": 506,
      "max": [
        0.5272409915924072,
        0.12183868885040283,
        0.12183870375156403
      ],
      "min": [
        -0.08820407092571259,
        -0.12183871865272522,
        -0.12183868885040283
      ],
      "type": "VEC3"
    },
    {
      "bufferView": 2,
      "byteOffset": 559752,
      "componentType": 5126,
      "count": 506,
      "max": [
        1.0,
        0.9238796234130859,
        1.0
      ],
      "min": [
        -1.0,
        -0.9238796234130859,
        -1.0
      ],
      "type": "VEC3"
    },
    {
      "bufferView": 1,
      "byteOffset": 184560,
      "componentType": 5126,
      "count": 506,
      "max": [
        1.0,
        0.9718194603919983
      ],
      "min": [
        0.0,
        0.01000000536441803
      ],
      "type": "VEC2"
    },
    {
      "bufferView": 0,
      "byteOffset": 136692,
      "componentType": 5125,
      "count": 720,
      "type": "SCALAR"
    },
    {
      "bufferView": 2,
      "byteOffset": 565824,
      "componentType": 5126,
      "count": 654,
      "max": [
        0.3097427785396576,
        0.35190296173095703,
        0.16534988582134247
      ],
      "min": [
        -0.5355366468429565,
        -0.8722097873687744,
        -0.16790954768657684
      ],
      "type": "VEC3"
    },
    {
      "bufferView": 2,
      "byteOffset": 573672,
      "componentType": 5126,
      "count": 654,
      "max": [
        1.0,
        1.0,
        1.0
      ],
      "min": [
        -0.9875072240829468,
        -1.0,
        -1.0
      ],
      "type": "VEC3"
    },
    {
      "bufferView": 1,
      "byteOffset": 188608,
      "componentType": 5126,
      "count": 654,
      "max": [
        0.875,
        1.0298861265182495
      ],
      "min": [
        0.10263939201831818,
        0.0
      ],
      "type": "VEC2"
    },
    {
      "bufferView": 0,
      "byteOffset": 139572,
      "componentType": 5125,
      "count": 912,
      "type": "SCALAR"
    },
    {
      "bufferView": 2,
      "byteOffset": 581520,
      "componentType": 5126,
      "count": 12567,
      "max": [
        2.7046236991882324,
        0.32742467522621155,
        0.22279834747314453
      ],
      "min": [
        -1.116320252418518,
        -0.2881292700767517,
        -0.22279834747314453
      ],
      "type": "VEC3"
    },
    {
      "bufferView": 2,
      "byteOffset": 732324,
      "componentType": 5126,
      "count": 12567,
      "max": [
        1.0,
        1.0,
        1.0
      ],
      "min": [
        -1.0,
        -1.0,
        -1.0
      ],
      "type": "VEC3"
    },
    {
      "bufferView": 1,
      "byteOffset": 193840,
      "componentType": 5126,
      "count": 12567,
      "max": [
        0.875,
        1.0
      ],
      "min": [
        0.125,
        0.0
      ],
      "type": "VEC2"
    },
    {
      "bufferView": 0,
      "byteOffset": 143220,
      "componentType": 5125,
      "count": 18306,
      "type": "SCALAR"
    },
    {
      "bufferView": 2,
      "byteOffset": 883128,
      "componentType": 5126,
      "count": 8098,
      "max": [
        0.051059722900390625,
        0.39527755975723267,
        0.19440189003944397
      ],
      "min": [
        -3.7057063579559326,
        -0.6648228168487549,
        -0.19440189003944397
      ],
      "type": "VEC3"
    },
    {
      "bufferView": 2,
      "byteOffset": 980304,
      "componentType": 5126,
      "count": 8098,
      "max": [
        1.0,
        1.0,
        1.0
      ],
      "min": [
        -1.0,
        -1.0,
        -1.0
      ],
      "type": "VEC3"
    },
    {
      "bufferView": 1,
      "byteOffset": 294376,
      "componentType": 5126,
      "count": 8098,
      "max": [
        0.9992091059684753,
        0.9986956715583801
      ],
      "min": [
        0.0013043427607044578,
        8.403908680065797e-08
      ],
      "type": "VEC2"
    },
    {
      "bufferView": 0,
      "byteOffset": 216444,
      "componentType": 5125,
      "count": 11991,
      "type": "SCALAR"
    },
    {
      "bufferView": 2,
      "byteOffset": 1077480,
      "componentType": 5126,
      "count": 648,
      "max": [
        0.3266752064228058,
        0.06643961369991302,
        0.1954174041748047
      ],
      "min": [
        -0.06186898052692413,
        -0.06666584312915802,
        -0.1565677374601364
      ],
      "type": "VEC3"
    },
    {
      "bufferView": 2,
      "byteOffset": 1085256,
      "componentType": 5126,
      "count": 648,
      "max": [
        1.0,
        1.0,
        1.0
      ],
      "min": [
        -1.0,
        -1.0,
        -1.0
      ],
      "type": "VEC3"
    },
    {
      "bufferView": 1,
      "byteOffset": 359160,
      "componentType": 5126,
      "count": 648,
      "max": [
        0.9989048838615417,
        0.9978208541870117
      ],
      "min": [
        0.0010951474541798234,
        0.0010951124131679535
      ],
      "type": "VEC2"
    },
    {
      "bufferView": 0,
      "byteOffset": 264408,
      "componentType": 5125,
      "count": 954,
      "type": "SCALAR"
    },
    {
      "bufferView": 2,
      "byteOffset": 1093032,
      "componentType": 5126,
      "count": 1116,
      "max": [
        0.06054241210222244,
        0.06406652927398682,
        0.16153886914253235
      ],
      "min": [
        -0.0606057234108448,
        -0.1367316097021103,
        -0.16121894121170044
      ],
      "type": "VEC3"
    },
    {
      "bufferView": 2,
      "byteOffset": 1106424,
      "componentType": 5126,
      "count": 1116,
      "max": [
        1.0,
        1.0,
        1.0
      ],
      "min": [
        -1.0,
        -1.0,
        -1.0
      ],
      "type": "VEC3"
    },
    {
      "bufferView": 1,
      "byteOffset": 364344,
      "componentType": 5126,
      "count": 1116,
      "max": [
        0.9981473088264465,
        0.9971998333930969
      ],
      "min": [
        0.001095115439966321,
        0.001095115439966321
      ],
      "type": "VEC2"
    },
    {
      "bufferView": 0,
      "byteOffset": 268224,
      "componentType": 5125,
      "count": 1941,
      "type": "SCALAR"
    },
    {
      "bufferView": 2,
      "byteOffset": 1119816,
      "componentType": 5126,
      "count": 313,
      "max": [
        -0.04996929317712784,
        -0.2274637520313263,
        0.13159456849098206
      ],
      "min": [
        -0.3083633780479431,
        -0.32350045442581177,
        -0.13159456849098206
      ],
      "type": "VEC3"
    },
    {
      "bufferView": 2,
      "byteOffset": 1123572,
      "componentType": 5126,
      "count": 313,
      "max": [
        0.9238813519477844,
        0.9238798022270203,
        1.0
      ],
      "min": [
        -0.9238817095756531,
        -0.9238802194595337,
        -1.0
      ],
      "type": "VEC3"
    },
    {
      "bufferView": 1,
      "byteOffset": 373272,
      "componentType": 5126,
      "count": 313,
      "max": [
        1.0,
        1.0
      ],
      "min": [
        0.0,
        0.01000000536441803
      ],
      "type": "VEC2"
    },
    {
      "bufferView": 0,
      "byteOffset": 275988,
      "componentType": 5125,
      "count": 465,
      "type": "SCALAR"
    },
    {
      "bufferView": 2,
      "byteOffset": 1127328,
      "componentType": 5126,
      "count": 2978,
      "max": [
        0.6558111906051636,
        0.19577020406723022,
        0.22399380803108215
      ],
      "min": [
        -1.2883211374282837,
        -1.2542674541473389,
        -0.22399380803108215
      ],
      "type": "VEC3"
    },
    {
      "bufferView": 2,
      "byteOffset": 1163064,
      "componentType": 5126,
      "count": 2978,
      "max": [
        1.0,
        1.0,
        1.0
      ],
      "min": [
        -1.0,
        -1.0,
        -1.0
      ],
      "type": "VEC3"
    },
    {
      "bufferView": 1,
      "byteOffset": 375776,
      "componentType": 5126,
      "count": 2978,
      "max": [
        1.0,
        1.0
      ],
      "min": [
        0.0,
        0.01000000536441803
      ],
      "type": "VEC2"
    },
    {
      "bufferView": 0,
      "byteOffset": 277848,
      "componentType": 5125,
      "count": 4170,
      "type": "SCALAR"
    },
    {
      "bufferView": 2,
      "byteOffset": 1198800,
      "componentType": 5126,
      "count": 818,
      "max": [
        -1.1165632009506226,
        0.19883811473846436,
        0.22494162619113922
      ],
      "min": [
        -1.3656134605407715,
        -1.2573354244232178,
        -0.22494162619113922
      ],
      "type": "VEC3"
    },
    {
      "bufferView": 2,
      "byteOffset": 1208616,
      "componentType": 5126,
      "count": 818,
      "max": [
        1.0,
        1.0,
        1.0
      ],
      "min": [
        -1.0,
        -1.0,
        -1.0
      ],
      "type": "VEC3"
    },
    {
      "bufferView": 1,
      "byteOffset": 399600,
      "componentType": 5126,
      "count": 818,
      "max": [
        0.9617987871170044,
        0.25
      ],
      "min": [
        0.5099999904632568,
        0.04514719545841217
      ],
      "type": "VEC2"
    },
    {
      "bufferView": 0,
      "byteOffset": 294528,
      "componentType": 5125,
      "count": 1194,
      "type": "SCALAR"
    },
    {
      "bufferView": 2,
      "byteOffset": 1218432,
      "componentType": 5126,
      "count": 1525,
      "max": [
        0.20316144824028015,
        0.1762901395559311,
        0.1148461401462555
      ],
      "min": [
        -0.2986885607242584,
        -0.3851195275783539,
        -0.1148461401462555
      ],
      "type": "VEC3"
    },
    {
      "bufferView": 2,
      "byteOffset": 1236732,
      "componentType": 5126,
      "count": 1525,
      "max": [
        1.0,
        1.0,
        1.0
      ],
      "min": [
        -1.0,
        -1.0,
        -1.0
      ],
      "type": "VEC3"
    },
    {
      "bufferView": 1,
      "byteOffset": 406144,
      "componentType": 5126,
      "count": 1525,
      "max": [
        0.9944761395454407,
        0.9974501729011536
      ],
      "min": [
        0.0010951148578897119,
        0.001095110783353448
      ],
      "type": "VEC2"
    },
    {
      "bufferView": 0,
      "byteOffset": 299304,
      "componentType": 5125,
      "count": 2169,
      "type": "SCALAR"
    },
    {
      "bufferView": 2,
      "byteOffset": 1255032,
      "componentType": 5126,
      "count": 2818,
      "max": [
        0.17193932831287384,
        0.5458645224571228,
        0.44167399406433105
      ],
      "min": [
        -1.7747148275375366,
        -0.05634520947933197,
        -0.22811561822891235
      ],
      "type": "VEC3"
    },
    {
      "bufferView": 2,
      "byteOffset": 1288848,
      "componentType": 5126,
      "count": 2818,
      "max": [
        1.0,
        1.0,
        1.0
      ],
      "min": [
        -1.0,
        -1.0,
        -1.0
      ],
      "type": "VEC3"
    },
    {
      "bufferView": 1,
      "byteOffset": 418344,
      "componentType": 5126,
      "count": 2818,
      "max": [
        1.0,
        1.0
      ],
      "min": [
        0.0,
        0.0
      ],
      "type": "VEC2"
    },
    {
      "bufferView": 0,
      "byteOffset": 307980,
      "componentType": 5125,
      "count": 4041,
      "type": "SCALAR"
    }
  ],
  "asset": {
    "extras": {
      "author": "D_U (https://sketchfab.com/DU1701)",
      "license": "CC-BY-4.0 (http://creativecommons.org/licenses/by/4.0/)",
      "source": "https://sketchfab.com/3d-models/low-poly-wac-47-cdc18413189040bf9dedc9a216f6fc92",
      "title": "low-poly WAC-47"
    },
    "generator": "Sketchfab-17.14.0",
    "version": "2.0"
  },
  "bufferViews": [
    {
      "buffer": 0,
      "byteLength": 324144,
      "name": "floatBufferViews",
      "target": 34963
    },
    {
      "buffer": 0,
      "byteLength": 440888,
      "byteOffset": 324144,
      "byteStride": 8,
      "name": "floatBufferViews",
      "target": 34962
    },
    {
      "buffer": 0,
      "byteLength": 1322664,
      "byteOffset": 765032,
      "byteStride": 12,
      "name": "floatBufferViews",
      "target": 34962
    }
  ],
  "buffers": [
    {
      "byteLength": 2087696,
      "uri": "scene.bin"
    }
  ],
  "materials": [
    {
      "doubleSided": true,
      "name": "stell",
      "pbrMetallicRoughness": {
        "baseColorFactor": [
          0.124772,
          0.124772,
          0.124772,
          1.0
        ],
        "metallicFactor": 0.5,
        "roughnessFactor": 0.5
      }
    },
    {
      "doubleSided": true,
      "name": "copper",
      "pbrMetallicRoughness": {
        "baseColorFactor": [
          0.47932,
          0.171441,
          0.0331048,
          1.0
        ],
        "roughnessFactor": 0.3
      }
    },
    {
      "doubleSided": true,
      "name": "h-190",
      "pbrMetallicRoughness": {
        "baseColorFactor": [
          0.0109601,
          0.0109601,
          0.0109601,
          1.0
        ],
        "metallicFactor": 0.5,
        "roughnessFactor": 0.5
      }
    },
    {
      "doubleSided": true,
      "name": "polymer",
      "pbrMetallicRoughness": {
        "baseColorFactor": [
          0.0202885,
          0.0202885,
          0.0202886,
          1.0
        ],
        "metallicFactor": 0.0,
        "roughnessFactor": 0.7
      }
    },
    {
      "doubleSided": true,
      "name": "resin",
      "pbrMetallicRoughness": {
        "baseColorFactor": [
          0.0202885,
          0.0202885,
          0.0202886,
          1.0
        ],
        "metallicFactor": 0.0
      }
    }
  ],
  "meshes": [
    {
      "name": "Object_0",
      "primitives": [
        {
          "attributes": {
            "NORMAL": 1,
            "POSITION": 0,
            "TEXCOORD_0": 2
          },
          "indices": 3,
          "material": 0,
          "mode": 4
        }
      ]
    },
    {
      "name": "Object_1",
      "primitives": [
        {
          "attributes": {
            "NORMAL": 5,
            "POSITION": 4,
            "TEXCOORD_0": 6
          },
          "indices": 7,
          "material": 1,
          "mode": 4
        }
      ]
    },
    {
      "name": "Object_2",
      "primitives": [
        {
          "attributes": {
            "NORMAL": 9,
            "POSITION": 8,
            "TEXCOORD_0": 10
          },
          "indices": 11,
          "material": 0,
          "mode": 4
        }
      ]
    },
    {
      "name": "Object_3",
      "primitives": [
        {
          "attributes": {
            "NORMAL": 13,
            "POSITION": 12,
            "TEXCOORD_0": 14
          },
          "indices": 15,
          "material": 1,
          "mode": 4
        }
      ]
    },
    {
      "name": "Object_4",
      "primitives": [
        {
          "attributes": {
            "NORMAL": 17,
            "POSITION": 16,
            "TEXCOORD_0": 18
          },
          "indices": 19,
          "material": 2,
          "mode": 4
        }
      ]
    },
    {
      "name": "Object_5",
      "primitives": [
        {
          "attributes": {
            "NORMAL": 21,
            "POSITION": 20,
            "TEXCOORD_0": 22
          },
          "indices": 23,
          "material": 2,
          "mode": 4
        }
      ]
    },
    {
      "name": "Object_6",
      "primitives": [
        {
          "attributes": {
            "NORMAL": 25,
            "POSITION": 24,
            "TEXCOORD_0": 26
          },
          "indices": 27,
          "material": 1,
          "mode": 4
        }
      ]
    },
    {
      "name": "Object_7",
      "primitives": [
        {
          "attributes": {
            "NORMAL": 29,
            "POSITION": 28,
            "TEXCOORD_0": 30
          },
          "indices": 31,
          "material": 0,
          "mode": 4
        }
      ]
    },
    {
      "name": "Object_8",
      "primitives": [
        {
          "attributes": {
            "NORMAL": 33,
            "POSITION": 32,
            "TEXCOORD_0": 34
          },
          "indices": 35,
          "material": 2,
          "mode": 4
        }
      ]
    },
    {
      "name": "Object_9",
      "primitives": [
        {
          "attributes": {
            "NORMAL": 37,
            "POSITION": 36,
            "TEXCOORD_0": 38
          },
          "indices": 39,
          "material": 3,
          "mode": 4
        }
      ]
    },
    {
      "name": "Object_10",
      "primitives": [
        {
          "attributes": {
            "NORMAL": 41,
            "POSITION": 40,
            "TEXCOORD_0": 42
          },
          "indices": 43,
          "material": 2,
          "mode": 4
        }
      ]
    },
    {
      "name": "Object_11",
      "primitives": [
        {
          "attributes": {
            "NORMAL": 45,
            "POSITION": 44,
            "TEXCOORD_0": 46
          },
          "indices": 47,
          "material": 0,
          "mode": 4
        }
      ]
    },
    {
      "name": "Object_12",
      "primitives": [
        {
          "attributes": {
            "NORMAL": 49,
            "POSITION": 48,
            "TEXCOORD_0": 50
          },
          "indices": 51,
          "material": 2,
          "mode": 4
        }
      ]
    },
    {
      "name": "Object_13",
      "primitives": [
        {
          "attributes": {
            "NORMAL": 53,
            "POSITION": 52,
            "TEXCOORD_0": 54
          },
          "indices": 55,
          "material": 2,
          "mode": 4
        }
      ]
    },
    {
      "name": "Object_14",
      "primitives": [
        {
          "attributes": {
            "NORMAL": 57,
            "POSITION": 56,
            "TEXCOORD_0": 58
          },
          "indices": 59,
          "material": 2,
          "mode": 4
        }
      ]
    },
    {
      "name": "Object_15",
      "primitives": [
        {
          "attributes": {
            "NORMAL": 61,
            "POSITION": 60,
            "TEXCOORD_0": 62
          },
          "indices": 63,
          "material": 2,
          "mode": 4
        }
      ]
    },
    {
      "name": "Object_16",
      "primitives": [
        {
          "attributes": {
            "NORMAL": 65,
            "POSITION": 64,
            "TEXCOORD_0": 66
          },
          "indices": 67,
          "material": 0,
          "mode": 4
        }
      ]
    },
    {
      "name": "Object_17",
      "primitives": [
        {
          "attributes": {
            "NORMAL": 69,
            "POSITION": 68,
            "TEXCOORD_0": 70
          },
          "indices": 71,
          "material": 2,
          "mode": 4
        }
      ]
    },
    {
      "name": "Object_18",
      "primitives": [
        {
          "attributes": {
            "NORMAL": 73,
            "POSITION": 72,
            "TEXCOORD_0": 74
          },
          "indices": 75,
          "material": 3,
          "mode": 4
        }
      ]
    },
    {
      "name": "Object_19",
      "primitives": [
        {
          "attributes": {
            "NORMAL": 77,
            "POSITION": 76,
            "TEXCOORD_0": 78
          },
          "indices": 79,
          "material": 2,
          "mode": 4
        }
      ]
    },
    {
      "name": "Object_20",
      "primitives": [
        {
          "attributes": {
            "NORMAL": 81,
            "POSITION": 80,
            "TEXCOORD_0": 82
          },
          "indices": 83,
          "material": 2,
          "mode": 4
        }
      ]
    },
    {
      "name": "Object_21",
      "primitives": [
        {
          "attributes": {
            "NORMAL": 85,
            "POSITION": 84,
            "TEXCOORD_0": 86
          },
          "indices": 87,
          "material": 2,
          "mode": 4
        }
      ]
    },
    {
      "name": "Object_22",
      "primitives": [
        {
          "attributes": {
            "NORMAL": 89,
            "POSITION": 88,
            "TEXCOORD_0": 90
          },
          "indices": 91,
          "material": 2,
          "mode": 4
        }
      ]
    },
    {
      "name": "Object_23",
      "primitives": [
        {
          "attributes": {
            "NORMAL": 93,
            "POSITION": 92,
            "TEXCOORD_0": 94
          },
          "indices": 95,
          "material": 2,
          "mode": 4
        }
      ]
    },
    {
      "name": "Object_24",
      "primitives": [
        {
          "attributes": {
            "NORMAL": 97,
            "POSITION": 96,
            "TEXCOORD_0": 98
          },
          "indices": 99,
          "material": 3,
          "mode": 4
        }
      ]
    },
    {
      "name": "Object_25",
      "primitives": [
        {
          "attributes": {
            "NORMAL": 101,
            "POSITION": 100,
            "TEXCOORD_0": 102
          },
          "indices": 103,
          "material": 4,
          "mode": 4
        }
      ]
    },
    {
      "name": "Object_26",
      "primitives": [
        {
          "attributes": {
            "NORMAL": 105,
            "POSITION": 104,
            "TEXCOORD_0": 106
          },
          "indices": 107,
          "material": 2,
          "mode": 4
        }
      ]
    },
    {
      "name": "Object_27",
      "primitives": [
        {
          "attributes": {
            "NORMAL": 109,
            "POSITION": 108,
            "TEXCOORD_0": 110
          },
          "indices": 111,
          "material": 2,
          "mode": 4
        }
      ]
    }
  ],
  "nodes": [
    {
      "children": [
        1
      ],
      "matrix": [
        1.0,
        0.0,
        0.0,
        0.0,
        0.0,
        2.220446049250313e-16,
        -1.0,
        0.0,
        0.0,
        1.0,
        2.220446049250313e-16,
        0.0,
        0.0,
        0.0,
        0.0,
        1.0
      ],
      "name": "Sketchfab_model"
    },
    {
      "children": [
        2
      ],
      "name": "root"
    },
    {
      "children": [
        3,
        6,
        9,
        11,
        15,
        18,
        21,
        23,
        25,
        27,
        30,
        32,
        34,
        36,
        38,
        40,
        42,
        46,
        48
      ],
      "matrix": [
        1.0,
        0.0,
        0.0,
        0.0,
        0.0,
        2.220446049250313e-16,
        1.0,
        0.0,
        0.0,
        -1.0,
        2.220446049250313e-16,
        0.0,
        0.0,
        0.0,
        0.0,
        1.0
      ],
      "name": "GLTF_SceneRootNode"
    },
    {
      "children": [
        4,
        5
      ],
      "matrix": [
        1.0,
        0.0,
        0.0,
        0.0,
        0.0,
        1.0,
        0.0,
        0.0,
        0.0,
        0.0,
        1.0,
        0.0,
        2.7039644718170166,
        -0.5548890233039856,
        0.0,
        1.0
      ],
      "name": "76239_0"
    },
    {
      "mesh": 0,
      "name": "Object_4"
    },
    {
      "mesh": 1,
      "name": "Object_5"
    },
    {
      "children": [
        7,
        8
      ],
      "matrix": [
        1.0,
        0.0,
        0.0,
        0.0,
        0.0,
        1.0,
        0.0,
        0.0,
        0.0,
        0.0,
        1.0,
        0.0,
        2.8802502155303955,
        -0.6386054158210754,
        0.0,
        1.0
      ],
      "name": "76239 case_1"
    },
    {
      "mesh": 2,
      "name": "Object_7"
    },
    {
      "mesh": 3,
      "name": "Object_8"
    },
    {
      "children": [
        10
      ],
      "matrix": [
        1.0,
        0.0,
        0.0,
        0.0,
        0.0,
        1.0,
        0.0,
        0.0,
        0.0,
        0.0,
        1.0,
        0.0,
        1.3424053192138672,
        0.6848840117454529,
        0.0,
        1.0
      ],
      "name": "troy micro iron sight_2"
    },
    {
      "mesh": 4,
      "name": "Object_10"
    },
    {
      "children": [
        12,
        13,
        14
      ],
      "matrix": [
        0.9934111646890508,
        -0.11460478991361389,
        -0.0,
        0.0,
        0.11460478991361389,
        0.9934111646890508,
        0.0,
        0.0,
        0.0,
        -0.0,
        1.0,
        0.0,
        1.1830995082855225,
        -0.7829394936561584,
        0.0,
        1.0
      ],
      "name": "wac47 30rnd mag _3"
    },
    {
      "mesh": 5,
      "name": "Object_12"
    },
    {
      "mesh": 6,
      "name": "Object_13"
    },
    {
      "mesh": 7,
      "name": "Object_14"
    },
    {
      "children": [
        16,
        17
      ],
      "matrix": [
        1.0,
        0.0,
        0.0,
        0.0,
        0.0,
        1.0,
        0.0,
        0.0,
        0.0,
        0.0,
        1.0,
        0.0,
        -0.37280142307281494,
        -0.7029187083244324,
        0.0,
        1.0
      ],
      "name": "wac47 30rnd mag epmty_4"
    },
    {
      "mesh": 8,
      "name": "Object_16"
    },
    {
      "mesh": 9,
      "name": "Object_17"
    },
    {
      "children": [
        19,
        20
      ],
      "matrix": [
        1.0,
        0.0,
        0.0,
        0.0,
        0.0,
        1.0,
        0.0,
        0.0,
        0.0,
        0.0,
        1.0,
        0.0,
        1.1701195240020752,
        0.21866771578788757,
        0.0,
        1.0
      ],
      "name": "wac47 barrel_5"
    },
    {
      "mesh": 10,
      "name": "Object_19"
    },
    {
      "mesh": 11,
      "name": "Object_20"
    },
    {
      "children": [
        22
      ],
      "matrix": [
        1.0,
        0.0,
        0.0,
        0.0,
        0.0,
        1.0,
        0.0,
        0.0,
        0.0,
        0.0,
        1.0,
        0.0,
        -0.8387373089790344,
        0.21879816055297852,
        0.0,
        1.0
      ],
      "name": "wac47 bolt carrier_6"
    },
    {
      "mesh": 12,
      "name": "Object_22"
    },
    {
      "children": [
        24
      ],
      "matrix": [
        1.0,
        0.0,
        0.0,
        0.0,
        0.0,
        1.0,
        0.0,
        0.0,
        0.0,
        0.0,
        1.0,
        0.0,
        -0.7876682877540588,
        0.015200138092041016,
        -0.1574402153491974,
        1.0
      ],
      "name": "wac47 bolt catch_7"
    },
    {
      "mesh": 13,
      "name": "Object_24"
    },
    {
      "children": [
        26
      ],
      "matrix": [
        1.0,
        0.0,
        0.0,
        0.0,
        0.0,
        1.0,
        0.0,
        0.0,
        0.0,
        0.0,
        1.0,
        0.0,
        -1.768233299255371,
        0.5247806310653687,
        0.0,
        1.0
      ],
      "name": "wac47 charging handle_8"
    },
    {
      "mesh": 14,
      "name": "Object_26"
    },
    {
      "children": [
        28,
        29
      ],
      "matrix": [
        1.0,
        0.0,
        0.0,
        0.0,
        0.0,
        -0.9982710136828019,
        0.05877910547729938,
        0.0,
        0.0,
        -0.05877910547729938,
        -0.9982710136828019,
        0.0,
        -0.4767875075340271,
        0.15015769004821777,
        0.1864667534828186,
        1.0
      ],
      "name": "wac47 dust cover_9"
    },
    {
      "mesh": 15,
      "name": "Object_28"
    },
    {
      "mesh": 16,
      "name": "Object_29"
    },
    {
      "children": [
        31
      ],
      "matrix": [
        1.0,
        0.0,
        0.0,
        0.0,
        0.0,
        1.0,
        0.0,
        0.0,
        0.0,
        0.0,
        1.0,
        0.0,
        4.096001625061035,
        0.21866819262504578,
        0.0,
        1.0
      ],
      "name": "wac47 flash hider_10"
    },
    {
      "mesh": 17,
      "name": "Object_31"
    },
    {
      "children": [
        33
      ],
      "matrix": [
        1.0,
        0.0,
        0.0,
        0.0,
        0.0,
        1.0,
        0.0,
        0.0,
        0.0,
        0.0,
        1.0,
        0.0,
        -1.6354328393936157,
        -0.44694727659225464,
        0.0,
        1.0
      ],
      "name": "wac47 grip_11"
    },
    {
      "mesh": 18,
      "name": "Object_33"
    },
    {
      "children": [
        35
      ],
      "matrix": [
        1.0,
        0.0,
        0.0,
        0.0,
        0.0,
        1.0,
        0.0,
        0.0,
        0.0,
        0.0,
        1.0,
        0.0,
        1.1701195240020752,
        0.21866771578788757,
        0.0,
        1.0
      ],
      "name": "wac47 handguard_12"
    },
    {
      "mesh": 19,
      "name": "Object_35"
    },
    {
      "children": [
        37
      ],
      "name": "wac47 lower receiver_13"
    },
    {
      "mesh": 20,
      "name": "Object_37"
    },
    {
      "children": [
        39
      ],
      "matrix": [
        1.0,
        0.0,
        0.0,
        0.0,
        0.0,
        1.0,
        0.0,
        0.0,
        0.0,
        0.0,
        1.0,
        0.0,
        -0.7881091237068176,
        -0.13989901542663574,
        0.0,
        1.0
      ],
      "name": "wac47 mag catch_14"
    },
    {
      "mesh": 21,
      "name": "Object_39"
    },
    {
      "children": [
        41
      ],
      "matrix": [
        1.0,
        0.0,
        0.0,
        0.0,
        0.0,
        1.0,
        0.0,
        0.0,
        0.0,
        0.0,
        1.0,
        0.0,
        -1.4180387258529663,
        -0.11626052856445313,
        0.0,
        1.0
      ],
      "name": "wac47 selector_15"
    },
    {
      "mesh": 22,
      "name": "Object_41"
    },
    {
      "children": [
        43,
        44,
        45
      ],
      "matrix": [
        1.0,
        0.0,
        0.0,
        0.0,
        0.0,
        1.0,
        0.0,
        0.0,
        0.0,
        0.0,
        1.0,
        0.0,
        -2.9488155841827393,
        0.22216452658176422,
        0.0,
        1.0
      ],
      "name": "wac47 stock_16"
    },
    {
      "mesh": 23,
      "name": "Object_43"
    },
    {
      "mesh": 24,
      "name": "Object_44"
    },
    {
      "mesh": 25,
      "name": "Object_45"
    },
    {
      "children": [
        47
      ],
      "matrix": [
        1.0,
        0.0,
        0.0,
        0.0,
        0.0,
        1.0,
        0.0,
        0.0,
        0.0,
        0.0,
        1.0,
        0.0,
        -1.1349523067474365,
        -0.17170977592468262,
        0.0,
        1.0
      ],
      "name": "wac47 trigga_17"
    },
    {
      "mesh": 26,
      "name": "Object_47"
    },
    {
      "children": [
        49
      ],
      "matrix": [
        1.0,
        0.0,
        0.0,
        0.0,
        0.0,
        1.0,
        0.0,
        0.0,
        0.0,
        0.0,
        1.0,
        0.0,
        -0.0001700427383184433,
        0.00022780895233154297,
        0.0,
        1.0
      ],
      "name": "wac47 upper receiver_18"
    },
    {
      "mesh": 27,
      "name": "Object_49"
    }
  ],
  "scene": 0,
  "scenes": [
    {
      "name": "Sketchfab_Scene",
      "nodes": [
        0
      ]
    }
  ]
}
